G04 ================== begin FILE IDENTIFICATION RECORD ==================*
G04 Layout Name:  P:/MEA5/PIFE/CARTE_ELEC/allegro/SMART_SENSOR_PROJECT_v2.0.brd*
G04 Film Name:    BOTTOM*
G04 File Format:  Gerber RS274X*
G04 File Origin:  Cadence Allegro 17.2-S014*
G04 Origin Date:  Fri Dec 21 16:34:23 2018*
G04 *
G04 Layer:  ETCH/BOTTOM*
G04 Layer:  PIN/BOTTOM*
G04 Layer:  VIA CLASS/BOTTOM*
G04 *
G04 Offset:    (0.00 0.00)*
G04 Mirror:    No*
G04 Mode:      Positive*
G04 Rotation:  0*
G04 FullContactRelief:  No*
G04 UndefLineWidth:     0.20*
G04 ================== end FILE IDENTIFICATION RECORD ====================*
%FSLAX51Y51*MOMM*%
%IR0*IPPOS*OFA0.00000B0.00000*MIA0B0*SFA1.00000B1.00000*%
%ADD11C,1.800098*%
%ADD14R,1.299972X4.500118*%
%ADD12C,1.999996*%
%ADD15R,1.800098X3.899916*%
%ADD13C,2.999994*%
%ADD16C,3.50012*%
%ADD10C,3.450082*%
%ADD17C,.508*%
%ADD18C,1.016*%
%ADD19C,.381*%
%ADD20C,1.524*%
%ADD22C,2.30886*%
%ADD23C,2.509012*%
%ADD25C,4.009136*%
%ADD21C,3.958844*%
%ADD24R,25.248616X3.023616*%
G75*
%LPD*%
G75*
G36*
G01X0Y0D02*
Y1219D01*
X762D01*
Y0D01*
X0D01*
G37*
%LPC*%
G75*
G36*
G01X707Y176D02*
Y215D01*
G02X708Y216I1J0D01*
G01X726D01*
G02X727Y215I0J-1D01*
G01Y176D01*
G02X726Y174I-1J0D01*
G01X708D01*
G02X707Y176I0J1D01*
G37*
G36*
G01X652Y105D02*
Y149D01*
G02X654Y151I1J0D01*
G01X667D01*
G02X668Y149I0J-1D01*
G01Y105D01*
G02X667Y103I-1J0D01*
G01X654D01*
G02X652Y105I0J1D01*
G37*
G36*
G01X593Y176D02*
Y215D01*
G02X594Y216I1J0D01*
G01X612D01*
G02X613Y215I0J-1D01*
G01Y176D01*
G02X612Y174I-1J0D01*
G01X594D01*
G02X593Y176I0J1D01*
G37*
G36*
G01X627Y105D02*
Y149D01*
G02X629Y151I1J0D01*
G01X641D01*
G02X643Y149I0J-1D01*
G01Y105D01*
G02X641Y103I-1J0D01*
G01X629D01*
G02X627Y105I0J1D01*
G37*
G36*
G01X440Y155D02*
X422Y174D01*
Y198D01*
G02X442I10J5D01*
G01Y182D01*
X449Y175D01*
X477D01*
G02Y155I5J-10D01*
G01X440D01*
G37*
G36*
G01X220Y175D02*
X249D01*
G02Y155I5J-10D01*
G01X212D01*
X193Y174D01*
Y198D01*
G02X213I10J5D01*
G01Y182D01*
X220Y175D01*
G37*
G36*
G01X501Y112D02*
X511Y121D01*
Y220D01*
X599Y309D01*
Y313D01*
G02X620I10J17D01*
G01Y301D01*
X531Y212D01*
Y113D01*
X510Y91D01*
X497D01*
G02Y112I-14J10D01*
G01X501D01*
G37*
G36*
G01X669Y86D02*
X675Y92D01*
Y238D01*
X650Y262D01*
Y313D01*
G02X671I10J17D01*
G01Y271D01*
X695Y246D01*
Y84D01*
X677Y66D01*
X564D01*
G02Y86I-5J10D01*
G01X669D01*
G37*
G36*
G01X538Y393D02*
G02X523Y373I-4J-12D01*
G01X466D01*
G02Y389I-9J8D01*
G01X523D01*
G02X529Y393I10J-8D01*
G03Y395I0J1D01*
G02X523Y399I4J12D01*
G01X466D01*
G02Y414I-9J8D01*
G01X523D01*
G02X529Y418I10J-8D01*
G03Y420I0J1D01*
G02X523Y424I4J12D01*
G01X466D01*
G02Y439I-9J8D01*
G01X523D01*
G02X538Y420I10J-8D01*
G03Y418I0J-1D01*
G02Y395I-4J-12D01*
G03Y393I0J-1D01*
G37*
G36*
G01X290Y56D02*
G02X269I-10J-5D01*
G01Y87D01*
G02X265Y91I10J14D01*
G01X183D01*
G02X172I-5J10D01*
G01X85D01*
X53Y123D01*
Y271D01*
X72Y290D01*
X94D01*
G02X113Y284I7J-10D01*
G03X115I1J0D01*
G02X139I12J-4D01*
G03X141I1J0D01*
G02X142Y287I12J-4D01*
G01Y334D01*
X165Y358D01*
G02X190Y360I12J-2D01*
G03X191I1J0D01*
G02X211Y366I12J-4D01*
G01X221D01*
G02X236I7J-10D01*
G01X299D01*
G02Y345I5J-10D01*
G01X236D01*
G02X221I-7J10D01*
G01X211D01*
G02X191Y351I-7J10D01*
G03X190I-1J0D01*
G02X180Y343I-12J4D01*
G01X163Y326D01*
Y315D01*
X198D01*
G02X209I5J-10D01*
G01X323D01*
G02X342Y309I7J-10D01*
G03X344I1J0D01*
G02X367I12J-4D01*
G03X369I1J0D01*
G02X388Y315I12J-4D01*
G01X426D01*
G02X437I5J-10D01*
G01X475D01*
G02X494Y309I7J-10D01*
G03X496I1J0D01*
G02X515Y315I12J-4D01*
G01X526D01*
G02X541I7J-10D01*
G01X552D01*
X561Y324D01*
Y395D01*
X583Y417D01*
X676D01*
Y424D01*
G02X674Y427I10J7D01*
G03X672I-1J0D01*
G02X653Y422I-12J4D01*
G01X642D01*
G02X625Y439I-7J10D01*
G01Y475D01*
G02X631Y494I10J7D01*
G03Y496I0J1D01*
G02Y520I4J12D01*
G03Y522I0J1D01*
G02X625Y526I4J12D01*
G01X600D01*
X524Y450D01*
X466D01*
G02Y465I-9J8D01*
G01X518D01*
X594Y541D01*
X625D01*
G02X631Y545I10J-8D01*
G03Y547I0J1D01*
G02X625Y551I4J12D01*
G01X600D01*
X524Y475D01*
X466D01*
G02Y490I-9J8D01*
G01X518D01*
X594Y566D01*
X625D01*
G02X631Y571I10J-8D01*
G03Y572I0J1D01*
G02X625Y577I4J12D01*
G01X600D01*
X524Y500D01*
X466D01*
G02Y516I-9J8D01*
G01X518D01*
X594Y592D01*
X625D01*
G02X631Y596I10J-8D01*
G03Y598I0J1D01*
G02X625Y602I4J12D01*
G01X600D01*
X524Y526D01*
X466D01*
G02Y541I-9J8D01*
G01X518D01*
X594Y617D01*
X625D01*
G02X647Y614I10J-8D01*
G03X649I1J0D01*
G02X652Y619I12J-4D01*
G03X652Y620I-1J1D01*
G01X645Y627D01*
X600D01*
X524Y551D01*
X466D01*
G02Y566I-9J8D01*
G01X518D01*
X594Y643D01*
X651D01*
X668Y625D01*
Y620D01*
G02X665Y598I-8J-10D01*
G03Y596I0J-1D01*
G02X670Y592I-4J-12D01*
G01X672Y592D01*
X678Y598D01*
Y619D01*
X645Y653D01*
X600D01*
X524Y577D01*
X466D01*
G02Y592I-9J8D01*
G01X518D01*
X594Y668D01*
X651D01*
X689Y630D01*
G03X691Y630I1J1D01*
G01Y632D01*
X645Y678D01*
X600D01*
X524Y602D01*
X466D01*
G02Y617I-9J8D01*
G01X518D01*
X594Y693D01*
X651D01*
X702Y642D01*
G03X704Y643I1J1D01*
G01Y645D01*
X645Y704D01*
X600D01*
X524Y627D01*
X466D01*
G02Y643I-9J8D01*
G01X518D01*
X594Y719D01*
X651D01*
X719Y651D01*
Y564D01*
X680Y526D01*
X670D01*
G02X665Y522I-10J8D01*
G03Y520I0J-1D01*
G02Y496I-4J-12D01*
G03Y494I0J-1D01*
G02X671Y475I-4J-12D01*
G01Y439D01*
G02X672Y436I-10J-7D01*
G03X674I1J0D01*
G02X684Y444I12J-4D01*
G01X726Y487D01*
Y682D01*
X676Y732D01*
Y757D01*
G02Y767I10J5D01*
G01Y780D01*
G02X674Y783I10J7D01*
G03X672I-1J0D01*
G02X653Y777I-12J4D01*
G01X642D01*
G02X625Y795I-7J10D01*
G01Y831D01*
G02X631Y850I10J7D01*
G03Y852I0J1D01*
G02Y875I4J12D01*
G03Y877I0J1D01*
G02X625Y881I4J12D01*
G01X622D01*
X617Y877D01*
Y759D01*
X511Y653D01*
X466D01*
G02Y668I-9J8D01*
G01X505D01*
X602Y765D01*
Y767D01*
G03X600Y767I-1J0D01*
G01X511Y678D01*
X466D01*
G02Y693I-9J8D01*
G01X505D01*
X589Y778D01*
Y779D01*
G03X588Y780I-1J0D01*
G01X511Y704D01*
X466D01*
G02Y719I-9J8D01*
G01X505D01*
X513Y727D01*
G03X513Y729I-1J1D01*
G01X466D01*
G02Y744I-9J8D01*
G01X507D01*
X564Y801D01*
Y805D01*
G03X562Y805I-1J0D01*
G01X511Y754D01*
X466D01*
G02Y770I-9J8D01*
G01X505D01*
X551Y816D01*
Y817D01*
G03X549Y818I-1J0D01*
G01X511Y780D01*
X466D01*
G02Y795I-9J8D01*
G01X505D01*
X538Y829D01*
Y830D01*
G03X537Y831I-1J0D01*
G01X511Y805D01*
X466D01*
G02Y820I-9J8D01*
G01X505D01*
X526Y841D01*
Y855D01*
G03X524Y856I-1J0D01*
G01X498Y831D01*
X466D01*
G02Y846I-9J8D01*
G01X492D01*
X513Y867D01*
Y881D01*
G03X511Y882I-1J0D01*
G01X486Y856D01*
X466D01*
G02Y871I-9J8D01*
G01X479D01*
X500Y892D01*
Y906D01*
G03X499Y907I-1J0D01*
G01X473Y881D01*
X466D01*
G02X466Y897I-9J8D01*
G01X467Y897D01*
X488Y918D01*
Y919D01*
G03X486Y920I-1J0D01*
G01X473Y907D01*
X466D01*
G02X466Y922I-9J8D01*
G01X467Y922D01*
X475Y930D01*
Y962D01*
X429Y1008D01*
X378D01*
X348Y1038D01*
Y1082D01*
G02X344Y1088I8J10D01*
G03X342I-1J0D01*
G02X338Y1082I-12J4D01*
G01Y1032D01*
X371Y998D01*
X435D01*
X465Y968D01*
Y948D01*
G02X450I-8J-9D01*
G01Y962D01*
X429Y983D01*
X365D01*
X323Y1026D01*
Y1082D01*
G02X318Y1088I8J10D01*
G03X317I-1J0D01*
G02X312Y1082I-12J4D01*
G01Y948D01*
G02X297I-8J-9D01*
G01Y1082D01*
G02X300Y1104I8J10D01*
G03Y1106I0J1D01*
G02X296Y1109I4J12D01*
G03X294Y1109I-1J-1D01*
G01X262Y1076D01*
Y926D01*
X266Y922D01*
X296D01*
G02Y907I9J-8D01*
G01X260D01*
X246Y920D01*
Y1083D01*
X289Y1125D01*
X295D01*
G02X317Y1122I10J-8D01*
G03X318I1J0D01*
G02X322Y1127I12J-4D01*
G03X322Y1128I-1J1D01*
G01X314Y1135D01*
X295D01*
X236Y1076D01*
Y926D01*
X266Y897D01*
X296D01*
G02Y881I9J-8D01*
G01X260D01*
X221Y920D01*
Y1083D01*
X285Y1146D01*
G03X284Y1148I-1J1D01*
G01X283D01*
X211Y1076D01*
Y926D01*
X266Y871D01*
X296D01*
G02Y856I9J-8D01*
G01X260D01*
X196Y920D01*
Y1083D01*
X272Y1159D01*
G03X271Y1161I-1J1D01*
G01X270D01*
X185Y1076D01*
Y926D01*
X266Y846D01*
X296D01*
G02Y831I9J-8D01*
G01X260D01*
X170Y920D01*
Y1083D01*
X264Y1176D01*
X359D01*
X389Y1146D01*
Y1128D01*
G02X393Y1122I-8J-10D01*
G03X395I1J0D01*
G02X418I12J-4D01*
G03X420I1J0D01*
G02X439Y1128I12J-4D01*
G01X475D01*
G02X478Y1129I7J-10D01*
G03Y1131I0J1D01*
G02X470Y1141I4J12D01*
G01X428Y1184D01*
X207D01*
X86Y1063D01*
Y1047D01*
G02Y1036I-10J-5D01*
G01Y1023D01*
G02X88Y1020I-10J-7D01*
G03X90I1J0D01*
G02X109Y1026I12J-4D01*
G01X120D01*
G02X137Y1009I7J-10D01*
G01Y973D01*
G02X131Y953I-10J-7D01*
G03Y952I0J-1D01*
G02Y928I-4J-12D01*
G03Y926I0J-1D01*
G02X137Y922I-4J-12D01*
G01X156D01*
X257Y820D01*
X296D01*
G02Y805I9J-8D01*
G01X251D01*
X149Y907D01*
X137D01*
G02X131Y903I-10J8D01*
G03Y901I0J-1D01*
G02X137Y897I-4J-12D01*
G01X156D01*
X257Y795D01*
X296D01*
G02Y780I9J-8D01*
G01X251D01*
X149Y881D01*
X137D01*
G02X131Y877I-10J8D01*
G03Y875I0J-1D01*
G02X137Y871I-4J-12D01*
G01X156D01*
X257Y770D01*
X296D01*
G02Y754I9J-8D01*
G01X251D01*
X149Y856D01*
X137D01*
G02X131Y852I-10J8D01*
G03Y850I0J-1D01*
G02X137Y846I-4J-12D01*
G01X156D01*
X257Y744D01*
X296D01*
G02Y729I9J-8D01*
G01X251D01*
X149Y831D01*
X137D01*
G02X115Y834I-10J8D01*
G03X113I-1J0D01*
G02X110Y829I-12J4D01*
G03X110Y828I1J-1D01*
G01X219Y719D01*
X296D01*
G02Y704I9J-8D01*
G01X213D01*
X94Y822D01*
Y828D01*
G02X97Y850I8J10D01*
G03Y852I0J1D01*
G02X92Y856I4J12D01*
G01X88D01*
X84Y852D01*
Y829D01*
X219Y693D01*
X296D01*
G02Y678I9J-8D01*
G01X213D01*
X73Y818D01*
G03X71Y817I-1J-1D01*
G01Y816D01*
X219Y668D01*
X296D01*
G02Y653I9J-8D01*
G01X213D01*
X60Y805D01*
G03X58Y805I-1J-1D01*
G01Y803D01*
X219Y643D01*
X296D01*
G02Y627I9J-8D01*
G01X213D01*
X43Y797D01*
Y883D01*
X82Y922D01*
X92D01*
G02X97Y926I10J-8D01*
G03Y928I0J1D01*
G02Y952I4J12D01*
G03Y953I0J1D01*
G02X91Y973I4J12D01*
G01Y1009D01*
G02X90Y1012I10J7D01*
G03X88I-1J0D01*
G02X78Y1004I-12J4D01*
G01X36Y961D01*
Y766D01*
X86Y715D01*
Y691D01*
G02Y680I-10J-5D01*
G01Y668D01*
G02X88Y665I-10J-7D01*
G03X90I1J0D01*
G02X109Y671I12J-4D01*
G01X120D01*
G02X137Y653I7J-10D01*
G01Y617D01*
G02X131Y598I-10J-7D01*
G03Y596I0J-1D01*
G02Y572I-4J-12D01*
G03Y571I0J-1D01*
G02X137Y566I-4J-12D01*
G01X162D01*
X213Y617D01*
X296D01*
G02Y602I9J-8D01*
G01X219D01*
X168Y551D01*
X137D01*
G02X131Y547I-10J8D01*
G03Y545I0J-1D01*
G02X137Y541I-4J-12D01*
G01X296D01*
G02Y526I9J-8D01*
G01X137D01*
G02X131Y522I-10J8D01*
G03Y520I0J-1D01*
G02X137Y516I-4J-12D01*
G01X296D01*
G02Y500I9J-8D01*
G01X137D01*
G02X131Y496I-10J8D01*
G03Y494I0J-1D01*
G02X137Y490I-4J-12D01*
G01X296D01*
G02Y475I9J-8D01*
G01X137D01*
G02X115Y478I-10J8D01*
G03X113I-1J0D01*
G02X109Y473I-12J4D01*
G01Y469D01*
X114Y465D01*
X296D01*
G02Y450I9J-8D01*
G01X110D01*
G03X109Y448I0J-1D01*
G01X117Y439D01*
X296D01*
G02Y424I9J-8D01*
G01X111D01*
X73Y462D01*
G03X71Y462I-1J-1D01*
G01Y460D01*
X117Y414D01*
X296D01*
G02Y399I9J-8D01*
G01X111D01*
X60Y450D01*
G03X58Y449I-1J-1D01*
G01Y448D01*
X117Y389D01*
X296D01*
G02Y373I9J-8D01*
G01X111D01*
X43Y441D01*
Y524D01*
X86Y566D01*
X92D01*
G02X97Y571I10J-8D01*
G03Y572I0J1D01*
G02Y596I4J12D01*
G03Y598I0J1D01*
G02X91Y617I4J12D01*
G01Y653D01*
G02X90Y656I10J7D01*
G03X88I-1J0D01*
G02X66Y668I-12J4D01*
G01Y680D01*
G02Y691I10J5D01*
G01Y707D01*
X15Y758D01*
Y969D01*
X64Y1018D01*
G02X66Y1023I12J-2D01*
G01Y1036D01*
G02Y1047I10J5D01*
G01Y1071D01*
X199Y1204D01*
X436D01*
X485Y1155D01*
G02X490Y1153I-2J-12D01*
G01X503D01*
G02X513I5J-10D01*
G01X601D01*
X696Y1058D01*
Y795D01*
G02Y780I-10J-7D01*
G01Y767D01*
G02Y757I-10J-5D01*
G01Y741D01*
X747Y690D01*
Y478D01*
X698Y430D01*
G02X696Y424I-12J2D01*
G01Y412D01*
G02X680Y396I-10J-5D01*
G01X591D01*
X582Y387D01*
Y316D01*
X560Y295D01*
X541D01*
G02X526I-7J10D01*
G01X515D01*
G02X496Y300I-7J10D01*
G03X494I-1J0D01*
G02X475Y295I-12J4D01*
G01X437D01*
G02X426I-5J10D01*
G01X391D01*
Y250D01*
X367Y225D01*
G02X352Y240I-11J3D01*
G01X371Y258D01*
Y297D01*
G02X369Y300I10J7D01*
G03X367I-1J0D01*
G02X344I-12J4D01*
G03X342I-1J0D01*
G02X323Y295I-12J4D01*
G01X209D01*
G02X198I-5J10D01*
G01X163D01*
Y287D01*
G02Y272I-10J-7D01*
G01Y250D01*
X138Y225D01*
G02X124Y240I-11J3D01*
G01X142Y258D01*
Y272D01*
G02X141Y275I10J7D01*
G03X139I-1J0D01*
G02X115I-12J4D01*
G03X113I-1J0D01*
G02X94Y269I-12J4D01*
G01X80D01*
X74Y262D01*
Y131D01*
X93Y112D01*
X172D01*
G02X183I5J-10D01*
G01X265D01*
G02X290Y87I14J-10D01*
G01Y56D01*
G37*
G54D22*
X51Y686D03*
Y1041D03*
X127Y178D03*
X178Y51D03*
X254Y190D03*
X305Y559D03*
Y584D03*
X356Y51D03*
Y178D03*
X457Y356D03*
X559Y127D03*
X483Y190D03*
X508Y1168D03*
X711Y406D03*
Y762D03*
G54D23*
X127Y356D03*
G54D25*
X711Y330D03*
G54D21*
X38Y38D03*
Y1181D03*
X724Y38D03*
Y1181D03*
G54D24*
X539Y43D03*
%LPD*%
G75*
G36*
G01X113Y538D02*
G03X106Y545I-12J-4D01*
G02Y547I0J1D01*
G03X113Y554I-4J12D01*
G02X115I1J0D01*
G03X123Y547I12J4D01*
G02Y545I0J-1D01*
G03X115Y538I4J-12D01*
G02X113I-1J0D01*
G37*
G36*
G01X84Y541D02*
G02X84Y543I0J1D01*
G01X91Y550D01*
G02X93Y550I1J-1D01*
G03X97Y547I9J9D01*
G02Y545I0J-1D01*
G03X92Y541I4J-12D01*
G01X84D01*
G37*
G36*
G01X113Y512D02*
G03X106Y520I-12J-4D01*
G02Y522I0J1D01*
G03X113Y529I-4J12D01*
G02X115I1J0D01*
G03X123Y522I12J4D01*
G02Y520I0J-1D01*
G03X115Y512I4J-12D01*
G02X113I-1J0D01*
G37*
G36*
G01X73Y505D02*
G02X71Y506I-1J1D01*
G01Y510D01*
X87Y526D01*
X92D01*
G03X97Y522I10J8D01*
G02Y520I0J-1D01*
G03X92Y516I4J-12D01*
G01X83D01*
X73Y505D01*
G37*
G36*
G01X113Y487D02*
G03X106Y494I-12J-4D01*
G02Y496I0J1D01*
G03X113Y504I-4J12D01*
G02X115I1J0D01*
G03X123Y496I12J4D01*
G02Y494I0J-1D01*
G03X115Y487I4J-12D01*
G02X113I-1J0D01*
G37*
G36*
G01X94Y465D02*
G02X92Y465I-1J0D01*
G01X84Y473D01*
Y495D01*
X90Y500D01*
X92D01*
G03X97Y496I10J8D01*
G02Y494I0J-1D01*
G03X94Y473I4J-12D01*
G01Y465D01*
G37*
G36*
G01X113Y589D02*
G03X106Y596I-12J-4D01*
G02Y598I0J1D01*
G03X109Y599I-4J12D01*
G01X120D01*
G03X123Y598I7J10D01*
G02Y596I0J-1D01*
G03X115Y589I4J-12D01*
G02X113I-1J0D01*
G37*
G36*
G01Y563D02*
G03X106Y571I-12J-4D01*
G02Y572I0J1D01*
G03X113Y580I-4J12D01*
G02X115I1J0D01*
G03X123Y572I12J4D01*
G02Y571I0J-1D01*
G03X115Y563I4J-12D01*
G02X113I-1J0D01*
G37*
G36*
G01X112Y620D02*
Y650D01*
X117D01*
Y620D01*
X112D01*
G37*
G36*
G01X60Y875D02*
G02X58Y876I-1J1D01*
G01Y877D01*
X88Y907D01*
X92D01*
G03X97Y903I10J8D01*
G02Y901I0J-1D01*
G03X92Y897I4J-12D01*
G01X82D01*
X60Y875D01*
G37*
G36*
G01X113Y868D02*
G03X106Y875I-12J-4D01*
G02Y877I0J1D01*
G03X113Y885I-4J12D01*
G02X115I1J0D01*
G03X123Y877I12J4D01*
G02Y875I0J-1D01*
G03X115Y868I4J-12D01*
G02X113I-1J0D01*
G37*
G36*
G01X73Y862D02*
G02X71Y863I-1J1D01*
G01Y864D01*
X88Y881D01*
X92D01*
G03X97Y877I10J8D01*
G02Y875I0J-1D01*
G03X92Y871I4J-12D01*
G01X82D01*
X73Y862D01*
G37*
G36*
G01X113Y843D02*
G03X106Y850I-12J-4D01*
G02Y852I0J1D01*
G03X113Y859I-4J12D01*
G02X115I1J0D01*
G03X123Y852I12J4D01*
G02Y850I0J-1D01*
G03X115Y843I4J-12D01*
G02X113I-1J0D01*
G37*
G36*
G01Y893D02*
G03X106Y901I-12J-4D01*
G02Y903I0J1D01*
G03X113Y910I-4J12D01*
G02X115I1J0D01*
G03X123Y903I12J4D01*
G02Y901I0J-1D01*
G03X115Y893I4J-12D01*
G02X113I-1J0D01*
G37*
G36*
G01Y944D02*
G03X106Y952I-12J-4D01*
G02Y953I0J1D01*
G03X109Y955I-4J12D01*
G01X120D01*
G03X123Y953I7J10D01*
G02Y952I0J-1D01*
G03X115Y944I4J-12D01*
G02X113I-1J0D01*
G37*
G36*
G01Y919D02*
G03X106Y926I-12J-4D01*
G02Y928I0J1D01*
G03X113Y935I-4J12D01*
G02X115I1J0D01*
G03X123Y928I12J4D01*
G02Y926I0J-1D01*
G03X115Y919I4J-12D01*
G02X113I-1J0D01*
G37*
G36*
G01X112Y975D02*
Y1006D01*
X117D01*
Y975D01*
X112D01*
G37*
G36*
G01X488Y973D02*
G02X486Y973I-1J0D01*
G01X435Y1024D01*
X384D01*
X363Y1045D01*
Y1082D01*
G03X367Y1088I-8J10D01*
G02X369I1J0D01*
G03X373Y1082I12J4D01*
G01Y1051D01*
X391Y1034D01*
X429D01*
X488Y975D01*
Y973D01*
G37*
G36*
G01X367Y1122D02*
G03X363Y1128I-12J-4D01*
G01Y1146D01*
X350Y1159D01*
G02X351Y1161I1J1D01*
G01X352D01*
X373Y1140D01*
Y1128D01*
G03X369Y1122I8J-10D01*
G02X367I-1J0D01*
G37*
G36*
G01X342D02*
G03X338Y1128I-12J-4D01*
G01Y1133D01*
X325Y1146D01*
G02X326Y1148I1J1D01*
G01X340D01*
X348Y1140D01*
Y1128D01*
G03X344Y1122I8J-10D01*
G02X342I-1J0D01*
G37*
G36*
G01X367Y1097D02*
G03X360Y1104I-12J-4D01*
G02Y1106I0J1D01*
G03X367Y1113I-4J12D01*
G02X369I1J0D01*
G03X377Y1106I12J4D01*
G02Y1104I0J-1D01*
G03X369Y1097I4J-12D01*
G02X367I-1J0D01*
G37*
G36*
G01X342D02*
G03X335Y1104I-12J-4D01*
G02Y1106I0J1D01*
G03X342Y1113I-4J12D01*
G02X344I1J0D01*
G03X351Y1106I12J4D01*
G02Y1104I0J-1D01*
G03X344Y1097I4J-12D01*
G02X342I-1J0D01*
G37*
G36*
G01X317D02*
G03X309Y1104I-12J-4D01*
G02Y1106I0J1D01*
G03X317Y1113I-4J12D01*
G02X318I1J0D01*
G03X326Y1106I12J4D01*
G02Y1104I0J-1D01*
G03X318Y1097I4J-12D01*
G02X317I-1J0D01*
G37*
G36*
G01X672Y792D02*
G03X653Y798I-12J-4D01*
G01X645D01*
Y831D01*
G03X647Y834I-10J7D01*
G02X649I1J0D01*
G03X665Y850I12J4D01*
G02Y852I0J1D01*
G03Y875I-4J12D01*
G02Y877I0J1D01*
G03Y901I-4J12D01*
G02Y903I0J1D01*
G03Y926I-4J12D01*
G02Y928I0J1D01*
G03Y952I-4J12D01*
G02Y953I0J1D01*
G03X649Y970I-4J12D01*
G02X647I-1J0D01*
G03X625Y973I-12J-4D01*
G01X606D01*
X568Y935D01*
G02X566Y935I-1J1D01*
G01Y937D01*
X617Y987D01*
Y1031D01*
G03X598Y1046I-8J10D01*
G02X596I-1J0D01*
G03X572I-12J-4D01*
G02X571I-1J0D01*
G03X547I-12J-4D01*
G02X545I-1J0D01*
G03X522I-12J-4D01*
G02X520I-1J0D01*
G03X500Y1031I-12J-4D01*
G01Y986D01*
G02X499Y985I-1J0D01*
G01X435Y1049D01*
X397D01*
X389Y1057D01*
Y1082D01*
G03X393Y1088I-8J10D01*
G02X395I1J0D01*
G03X418I12J4D01*
G02X420I1J0D01*
G03X439Y1082I12J4D01*
G01X475D01*
G03X493Y1100I7J10D01*
G01Y1110D01*
G03X487Y1129I-10J7D01*
G02Y1131I0J1D01*
G03X490Y1133I-4J12D01*
G01X503D01*
G03X513I5J10D01*
G01X593D01*
X676Y1050D01*
Y795D01*
G03X674Y792I10J-7D01*
G02X672I-1J0D01*
G37*
G36*
G01X393Y1097D02*
G03X385Y1104I-12J-4D01*
G02Y1106I0J1D01*
G03X393Y1113I-4J12D01*
G02X395I1J0D01*
G03X402Y1106I12J4D01*
G02Y1104I0J-1D01*
G03X395Y1097I4J-12D01*
G02X393I-1J0D01*
G37*
G36*
G01X418D02*
G03X411Y1104I-12J-4D01*
G02Y1106I0J1D01*
G03X418Y1113I-4J12D01*
G02X420I1J0D01*
G03X422Y1110I12J4D01*
G01Y1100D01*
G03X420Y1097I10J-7D01*
G02X418I-1J0D01*
G37*
G36*
G01X442Y1102D02*
Y1107D01*
X472D01*
Y1102D01*
X442D01*
G37*
G36*
G01X543Y960D02*
G02X541Y961I-1J1D01*
G01Y962D01*
X566Y987D01*
Y1031D01*
G03X571Y1037I-8J10D01*
G02X572I1J0D01*
G03X577Y1031I12J4D01*
G01Y994D01*
X543Y960D01*
G37*
G36*
G01X517Y985D02*
G02X516Y986I-1J1D01*
G01Y1031D01*
G03X520Y1037I-8J10D01*
G02X522I1J0D01*
G03X526Y1031I12J4D01*
G01Y994D01*
X517Y985D01*
G37*
G36*
G01X530Y973D02*
G02X528Y973I-1J1D01*
G01Y975D01*
X541Y987D01*
Y1031D01*
G03X545Y1037I-8J10D01*
G02X547I1J0D01*
G03X551Y1031I12J4D01*
G01Y994D01*
X530Y973D01*
G37*
G36*
G01X555Y947D02*
G02X554Y948I-1J1D01*
G01Y949D01*
X592Y987D01*
Y1031D01*
G03X596Y1037I-8J10D01*
G02X598I1J0D01*
G03X602Y1031I12J4D01*
G01Y994D01*
X555Y947D01*
G37*
G36*
G01X581Y922D02*
G02X579Y923I-1J1D01*
G01Y924D01*
X613Y958D01*
X625D01*
G03X631Y953I10J8D01*
G02Y952I0J-1D01*
G03X625Y947I4J-12D01*
G01X606D01*
X581Y922D01*
G37*
G36*
G01X594Y909D02*
G02X592Y910I-1J1D01*
G01Y911D01*
X613Y932D01*
X625D01*
G03X631Y928I10J8D01*
G02Y926I0J-1D01*
G03X625Y922I4J-12D01*
G01X606D01*
X594Y909D01*
G37*
G36*
G01X606Y888D02*
G02X605Y888I-1J1D01*
G01Y899D01*
X613Y907D01*
X625D01*
G03X631Y903I10J8D01*
G02Y901I0J-1D01*
G03X625Y897I4J-12D01*
G01X615D01*
X606Y888D01*
G37*
G36*
G01X645Y442D02*
Y472D01*
X650D01*
Y442D01*
X645D01*
G37*
G36*
G01X647Y512D02*
G03X639Y520I-12J-4D01*
G02Y522I0J1D01*
G03X647Y529I-4J12D01*
G02X649I1J0D01*
G03X656Y522I12J4D01*
G02Y520I0J-1D01*
G03X649Y512I4J-12D01*
G02X647I-1J0D01*
G37*
G36*
G01X642Y493D02*
G03X639Y494I-7J-10D01*
G02Y496I0J1D01*
G03X647Y504I-4J12D01*
G02X649I1J0D01*
G03X656Y496I12J4D01*
G02Y494I0J-1D01*
G03X653Y493I4J-12D01*
G01X642D01*
G37*
G36*
G01X670Y541D02*
G03X665Y545I-10J-8D01*
G02Y547I0J1D01*
G03X670Y551I-4J12D01*
G01X680D01*
X702Y573D01*
G02X704Y572I1J-1D01*
G01Y571D01*
X674Y541D01*
X670D01*
G37*
G36*
G01X647Y538D02*
G03X639Y545I-12J-4D01*
G02Y547I0J1D01*
G03X647Y554I-4J12D01*
G02X649I1J0D01*
G03X656Y547I12J4D01*
G02Y545I0J-1D01*
G03X649Y538I4J-12D01*
G02X647I-1J0D01*
G37*
G36*
G01Y589D02*
G03X639Y596I-12J-4D01*
G02Y598I0J1D01*
G03X647Y605I-4J12D01*
G02X649I1J0D01*
G03X656Y598I12J4D01*
G02Y596I0J-1D01*
G03X649Y589I4J-12D01*
G02X647I-1J0D01*
G37*
G36*
G01X670Y566D02*
G03X665Y571I-10J-8D01*
G02Y572I0J1D01*
G03X670Y577I-4J12D01*
G01X679D01*
X689Y587D01*
G02X691Y586I1J-1D01*
G01Y583D01*
X674Y566D01*
X670D01*
G37*
G36*
G01X647Y563D02*
G03X639Y571I-12J-4D01*
G02Y572I0J1D01*
G03X647Y580I-4J12D01*
G02X649I1J0D01*
G03X656Y572I12J4D01*
G02Y571I0J-1D01*
G03X649Y563I4J-12D01*
G02X647I-1J0D01*
G37*
G36*
G01Y868D02*
G03X639Y875I-12J-4D01*
G02Y877I0J1D01*
G03X647Y885I-4J12D01*
G02X649I1J0D01*
G03X656Y877I12J4D01*
G02Y875I0J-1D01*
G03X649Y868I4J-12D01*
G02X647I-1J0D01*
G37*
G36*
G01Y843D02*
G03X639Y850I-12J-4D01*
G02Y852I0J1D01*
G03X647Y859I-4J12D01*
G02X649I1J0D01*
G03X656Y852I12J4D01*
G02Y850I0J-1D01*
G03X649Y843I4J-12D01*
G02X647I-1J0D01*
G37*
G36*
G01Y944D02*
G03X639Y952I-12J-4D01*
G02Y953I0J1D01*
G03X647Y961I-4J12D01*
G02X649I1J0D01*
G03X656Y953I12J4D01*
G02Y952I0J-1D01*
G03X649Y944I4J-12D01*
G02X647I-1J0D01*
G37*
G36*
G01Y919D02*
G03X639Y926I-12J-4D01*
G02Y928I0J1D01*
G03X647Y935I-4J12D01*
G02X649I1J0D01*
G03X656Y928I12J4D01*
G02Y926I0J-1D01*
G03X649Y919I4J-12D01*
G02X647I-1J0D01*
G37*
G36*
G01Y893D02*
G03X639Y901I-12J-4D01*
G02Y903I0J1D01*
G03X647Y910I-4J12D01*
G02X649I1J0D01*
G03X656Y903I12J4D01*
G02Y901I0J-1D01*
G03X649Y893I4J-12D01*
G02X647I-1J0D01*
G37*
G54D10*
X38Y38D03*
Y1181D03*
X724Y38D03*
Y1181D03*
G54D20*
G01X76Y686D02*
Y711D01*
X25Y762D01*
Y965D01*
X76Y1016D01*
G01X178Y102D02*
X89D01*
X64Y127D01*
Y267D01*
X76Y279D01*
X102D01*
G01X127Y229D02*
X152Y254D01*
Y279D01*
G01X102Y610D02*
Y660D01*
G01X127Y610D02*
X102D01*
G01X127Y660D02*
Y610D01*
G01X76Y660D02*
Y686D01*
G01X102Y660D02*
X127D01*
G01Y965D02*
Y1016D01*
G01X102Y965D02*
X127D01*
G01X102Y1016D02*
Y965D01*
G01X76Y1016D02*
Y1041D01*
G01D02*
Y1067D01*
X203Y1194D01*
X432D01*
X483Y1143D01*
G01X127Y1016D02*
X102D01*
G01X279Y102D02*
X178D01*
G01X254Y165D02*
X216D01*
X203Y178D01*
Y203D01*
G01X152Y279D02*
Y305D01*
G01X203Y356D02*
X229D01*
G01X203Y305D02*
X152D01*
G01X203D02*
X330D01*
G01X152D02*
Y330D01*
X178Y356D01*
G01X279Y102D02*
Y51D01*
G01X229Y356D02*
X305D01*
G01X356Y229D02*
X381Y254D01*
Y305D01*
G01D02*
X432D01*
G01X483Y165D02*
X444D01*
X432Y178D01*
Y203D01*
G01Y305D02*
X483D01*
G01X432Y1118D02*
Y1092D01*
G01X483Y1118D02*
X432D01*
G01Y1092D02*
X483D01*
G01X610Y330D02*
Y305D01*
X521Y216D01*
Y117D01*
X505Y102D01*
X483D01*
G01X508Y305D02*
X533D01*
G01X686Y406D02*
X587D01*
X572Y391D01*
Y320D01*
X556Y305D01*
X533D01*
G01X483Y1092D02*
Y1118D01*
G01X686Y787D02*
Y1054D01*
X597Y1143D01*
X508D01*
G01D02*
X483D01*
G01X559Y76D02*
X673D01*
X685Y88D01*
Y127D01*
G01X635Y432D02*
X660D01*
G01X635Y483D02*
Y432D01*
G01X660Y483D02*
X635D01*
G01Y787D02*
Y838D01*
G01X660Y787D02*
X635D01*
G01X660Y330D02*
Y267D01*
X685Y242D01*
Y127D01*
G01X686Y432D02*
Y406D01*
G01Y762D02*
Y737D01*
X737Y686D01*
Y483D01*
X686Y432D01*
G01X660D02*
Y483D01*
G01X686Y787D02*
Y762D01*
G54D11*
X51Y686D03*
Y1041D03*
X127Y178D03*
Y229D03*
X76Y686D03*
Y1041D03*
X178Y102D03*
Y51D03*
X203Y203D03*
Y305D03*
X279Y51D03*
X254Y165D03*
Y190D03*
X305Y356D03*
Y381D03*
Y406D03*
Y432D03*
Y457D03*
Y483D03*
Y508D03*
Y533D03*
Y559D03*
Y584D03*
Y610D03*
Y635D03*
Y660D03*
Y686D03*
Y711D03*
Y737D03*
Y762D03*
Y787D03*
Y813D03*
Y838D03*
Y864D03*
Y889D03*
Y914D03*
Y940D03*
X356Y51D03*
Y178D03*
Y229D03*
X432Y203D03*
Y305D03*
X457Y381D03*
Y356D03*
Y457D03*
Y432D03*
Y406D03*
Y533D03*
Y508D03*
Y483D03*
Y635D03*
Y610D03*
Y584D03*
Y559D03*
Y711D03*
Y686D03*
Y660D03*
Y787D03*
Y762D03*
Y737D03*
Y889D03*
Y864D03*
Y838D03*
Y813D03*
Y940D03*
Y914D03*
X559Y76D03*
Y127D03*
X483Y165D03*
Y190D03*
X508Y1143D03*
Y1168D03*
X686Y406D03*
X711D03*
X686Y762D03*
X711D03*
G54D12*
X127Y279D03*
X102D03*
X127Y356D03*
X102Y533D03*
Y508D03*
Y483D03*
X127Y533D03*
Y508D03*
Y483D03*
X102Y610D03*
Y584D03*
Y559D03*
X127Y610D03*
Y584D03*
Y559D03*
Y660D03*
X102D03*
X76D03*
X102Y889D03*
Y864D03*
Y838D03*
X127Y889D03*
Y864D03*
Y838D03*
X102Y965D03*
Y940D03*
Y914D03*
X127Y965D03*
Y940D03*
Y914D03*
Y1016D03*
X102D03*
X76D03*
X152Y279D03*
X203Y356D03*
X178D03*
X229D03*
X305Y1118D03*
Y1092D03*
X381Y305D03*
X356D03*
X330D03*
X381Y1118D03*
X356D03*
X330D03*
X381Y1092D03*
X356D03*
X330D03*
X432Y1118D03*
X406D03*
X432Y1092D03*
X406D03*
X533Y305D03*
X508D03*
X483D03*
X533Y381D03*
Y406D03*
Y432D03*
X559Y1041D03*
X533D03*
X508D03*
X483Y1092D03*
Y1118D03*
Y1143D03*
X635Y432D03*
Y483D03*
Y508D03*
Y533D03*
Y559D03*
Y584D03*
Y610D03*
Y787D03*
Y838D03*
Y864D03*
Y889D03*
Y914D03*
Y940D03*
Y965D03*
X610Y1041D03*
X584D03*
X660Y432D03*
X686D03*
X660Y483D03*
Y508D03*
Y533D03*
Y559D03*
Y584D03*
Y610D03*
Y787D03*
X686D03*
X660Y838D03*
Y864D03*
Y889D03*
Y914D03*
Y940D03*
Y965D03*
G54D13*
X279Y102D03*
X483D03*
G54D14*
X635Y127D03*
X685D03*
X660D03*
G54D15*
X603Y195D03*
X717D03*
G54D16*
X610Y330D03*
X711D03*
X660D03*
G54D17*
G01X42Y677D02*
X51Y686D01*
G01X42Y695D02*
X51Y686D01*
G01X42Y1032D02*
X51Y1041D01*
G01X42Y1050D02*
X51Y1041D01*
G01X118Y169D02*
X127Y178D01*
G01D02*
X136Y187D01*
G01X118D02*
X127Y178D01*
G01D02*
X136Y169D01*
G01X117Y270D02*
X127Y279D01*
G01D02*
X137Y289D01*
G01X117D02*
X127Y279D01*
G01D02*
X137Y270D01*
G01X117Y346D02*
X127Y356D01*
G01D02*
X137Y365D01*
G01X117D02*
X127Y356D01*
G01D02*
X137Y346D01*
G01X117Y594D02*
X127Y584D01*
G01X117Y574D02*
X127Y584D01*
G01D02*
X137Y594D01*
G01X127Y584D02*
X137Y574D01*
G01X92D02*
X102Y584D01*
G01D02*
X111Y594D01*
G01X92D02*
X102Y584D01*
G01D02*
X111Y574D01*
G01X51Y686D02*
X60Y695D01*
G01X51Y686D02*
X60Y677D01*
G01X117Y950D02*
X127Y940D01*
G01X117Y930D02*
X127Y940D01*
G01D02*
X137Y950D01*
G01X127Y940D02*
X137Y930D01*
G01X92D02*
X102Y940D01*
G01D02*
X111Y950D01*
G01X92D02*
X102Y940D01*
G01D02*
X111Y930D01*
G01X51Y1041D02*
X60Y1050D01*
G01X51Y1041D02*
X60Y1032D01*
G01X169Y42D02*
X178Y51D01*
G01D02*
X187Y60D01*
G01X169D02*
X178Y51D01*
G01D02*
X187Y42D01*
G01X245Y181D02*
X254Y190D01*
G01D02*
X263Y200D01*
G01X245D02*
X254Y190D01*
G01D02*
X263Y181D01*
G01X347Y42D02*
X356Y51D01*
G01D02*
X365Y60D01*
G01X347D02*
X356Y51D01*
G01D02*
X365Y42D01*
G01X347Y169D02*
X356Y178D01*
G01D02*
X365Y187D01*
G01X347D02*
X356Y178D01*
G01D02*
X365Y169D01*
G01X346Y295D02*
X356Y305D01*
G01D02*
X365Y315D01*
G01X346D02*
X356Y305D01*
G01D02*
X365Y295D01*
G01X448Y347D02*
X457Y356D01*
G01D02*
X466Y365D01*
G01X448D02*
X457Y356D01*
G01D02*
X466Y347D01*
G01X397Y1102D02*
X406Y1092D01*
G01X397Y1082D02*
X406Y1092D01*
G01D02*
X416Y1102D01*
G01X406Y1092D02*
X416Y1082D01*
G01X397Y1108D02*
X406Y1118D01*
G01D02*
X416Y1127D01*
G01X397D02*
X406Y1118D01*
G01D02*
X416Y1108D01*
G01X550Y118D02*
X559Y127D01*
G01X474Y181D02*
X483Y190D01*
G01D02*
X492Y200D01*
G01X474D02*
X483Y190D01*
G01D02*
X492Y181D01*
G01X550Y136D02*
X559Y127D01*
G01X499Y1159D02*
X508Y1168D01*
G01D02*
X517Y1177D01*
G01X499D02*
X508Y1168D01*
G01D02*
X517Y1159D01*
G01X635Y103D02*
Y127D01*
G01X559D02*
X568Y118D01*
G01X635Y127D02*
Y151D01*
G01X627Y127D02*
X635D01*
G01D02*
X643D01*
G01X559D02*
X568Y136D01*
G01X625Y498D02*
X635Y508D01*
G01D02*
X645Y518D01*
G01X625D02*
X635Y508D01*
G01D02*
X645Y498D01*
G01X625Y854D02*
X635Y864D01*
G01D02*
X645Y873D01*
G01X625D02*
X635Y864D01*
G01D02*
X645Y854D01*
G01X702Y397D02*
X711Y406D01*
G01D02*
X720Y415D01*
G01X702D02*
X711Y406D01*
G01D02*
X720Y397D01*
G01X651Y518D02*
X660Y508D01*
G01X651Y498D02*
X660Y508D01*
G01D02*
X670Y518D01*
G01X660Y508D02*
X670Y498D01*
G01X702Y753D02*
X711Y762D01*
G01D02*
X720Y771D01*
G01X702D02*
X711Y762D01*
G01D02*
X720Y753D01*
G54D18*
G01X305Y381D02*
X114D01*
X51Y444D01*
Y521D01*
X89Y559D01*
X102D01*
G01X305Y432D02*
X114D01*
X76Y470D01*
Y498D01*
X86Y508D01*
X102D01*
G01X305Y457D02*
X110D01*
X102Y466D01*
Y483D01*
G01X305Y406D02*
X114D01*
X64Y457D01*
Y513D01*
X84Y533D01*
X102D01*
G01X127D02*
X305D01*
G01X127Y483D02*
X305D01*
G01Y508D02*
X127D01*
G01X305Y610D02*
X216D01*
X165Y559D01*
X127D01*
G01X305Y635D02*
X216D01*
X51Y800D01*
Y880D01*
X85Y914D01*
X102D01*
G01X305Y660D02*
X216D01*
X64Y813D01*
Y868D01*
X85Y889D01*
X102D01*
G01X305Y711D02*
X216D01*
X102Y826D01*
Y838D01*
G01X305Y686D02*
X216D01*
X76Y826D01*
Y855D01*
X85Y864D01*
X102D01*
G01X305Y762D02*
X254D01*
X152Y864D01*
X127D01*
G01X305Y737D02*
X254D01*
X152Y838D01*
X127D01*
G01X305Y813D02*
X254D01*
X152Y914D01*
X127D01*
G01X305Y787D02*
X254D01*
X152Y889D01*
X127D01*
G01X305Y864D02*
X263D01*
X203Y923D01*
Y1080D01*
X279Y1156D01*
X343D01*
X356Y1143D01*
Y1118D01*
G01X305Y838D02*
X263D01*
X178Y923D01*
Y1080D01*
X267Y1168D01*
X356D01*
X381Y1143D01*
Y1118D01*
G01X305Y914D02*
X263D01*
X254Y923D01*
Y1080D01*
X292Y1118D01*
X305D01*
G01X330D02*
Y1130D01*
X318Y1143D01*
X292D01*
X229Y1080D01*
Y923D01*
X263Y889D01*
X305D01*
G01Y1092D02*
Y940D01*
G01X356Y1092D02*
Y1041D01*
X381Y1016D01*
X432D01*
X483Y965D01*
Y927D01*
X470Y914D01*
X457D01*
G01Y940D02*
Y965D01*
X432Y991D01*
X368D01*
X330Y1029D01*
Y1092D01*
G01X457Y889D02*
X470D01*
X495Y914D01*
Y978D01*
X432Y1041D01*
X394D01*
X381Y1054D01*
Y1092D01*
G01X533Y432D02*
X457D01*
G01Y406D02*
X533D01*
G01Y381D02*
X457D01*
G01X635Y533D02*
X597D01*
X521Y457D01*
X457D01*
G01X635Y559D02*
X597D01*
X521Y483D01*
X457D01*
G01X635Y584D02*
X597D01*
X521Y508D01*
X457D01*
G01X635Y610D02*
X597D01*
X521Y533D01*
X457D01*
G01X660Y610D02*
Y622D01*
X648Y635D01*
X597D01*
X521Y559D01*
X457D01*
G01X660Y584D02*
X676D01*
X686Y594D01*
Y622D01*
X648Y660D01*
X597D01*
X521Y584D01*
X457D01*
G01X660Y559D02*
X677D01*
X698Y580D01*
Y635D01*
X648Y686D01*
X597D01*
X521Y610D01*
X457D01*
G01Y711D02*
X508D01*
X584Y787D01*
Y914D01*
X610Y940D01*
X635D01*
G01X457Y686D02*
X508D01*
X597Y775D01*
Y902D01*
X610Y914D01*
X635D01*
G01X457Y660D02*
X508D01*
X610Y762D01*
Y880D01*
X618Y889D01*
X635D01*
G01X660Y533D02*
X677D01*
X711Y568D01*
Y648D01*
X648Y711D01*
X597D01*
X521Y635D01*
X457D01*
G01Y737D02*
X511D01*
X572Y798D01*
Y927D01*
X610Y965D01*
X635D01*
G01X457Y762D02*
X508D01*
X559Y813D01*
Y940D01*
X610Y991D01*
Y1041D01*
G01X457Y787D02*
X508D01*
X546Y826D01*
Y952D01*
X584Y991D01*
Y1041D01*
G01X457Y813D02*
X508D01*
X533Y838D01*
Y965D01*
X559Y991D01*
Y1041D01*
G01X457Y864D02*
X483D01*
X508Y889D01*
Y1041D01*
G01X457Y838D02*
X495D01*
X521Y864D01*
Y978D01*
X533Y991D01*
Y1041D01*
G54D19*
G01X659Y40D02*
X657Y39D01*
X655Y38D01*
X654D01*
X652Y39D01*
X651Y40D01*
X650Y42D01*
X651Y44D01*
X652Y46D01*
X653Y47D01*
X656Y47D01*
X657Y48D01*
X658Y50D01*
X657Y52D01*
X656Y53D01*
X655Y54D01*
X654D01*
X652Y54D01*
X651Y52D01*
G01X646Y38D02*
Y49D01*
G01Y46D02*
X645Y47D01*
X644Y48D01*
X643Y49D01*
X642Y48D01*
X641Y47D01*
X640Y46D01*
Y38D01*
G01Y46D02*
X639Y47D01*
X638Y48D01*
X637Y49D01*
X636Y48D01*
X635Y47D01*
X634Y46D01*
Y38D01*
G01X622D02*
Y49D01*
G01Y47D02*
X623Y48D01*
X624Y49D01*
X625Y49D01*
X627Y48D01*
X628Y47D01*
X629Y46D01*
X629Y43D01*
X629Y41D01*
X628Y40D01*
X627Y39D01*
X625Y38D01*
X624Y38D01*
X623Y39D01*
X622Y40D01*
G01X614Y38D02*
Y49D01*
G01Y47D02*
X613Y48D01*
X612Y49D01*
X610Y49D01*
X609Y49D01*
X608Y48D01*
G01X597Y54D02*
Y38D01*
G01X599Y49D02*
X594D01*
G01X572Y40D02*
X570Y39D01*
X568Y38D01*
X567D01*
X565Y39D01*
X564Y40D01*
X563Y42D01*
X564Y44D01*
X565Y46D01*
X567Y47D01*
X569Y47D01*
X570Y48D01*
X571Y50D01*
X571Y52D01*
X570Y53D01*
X568Y54D01*
X567D01*
X565Y54D01*
X564Y52D01*
G01X556Y45D02*
X550D01*
X550Y47D01*
X551Y48D01*
X553Y49D01*
X554Y49D01*
X555Y48D01*
X556Y46D01*
X556Y44D01*
Y43D01*
X556Y41D01*
X555Y39D01*
X554Y38D01*
X552Y38D01*
X551Y39D01*
X550Y40D01*
G01X542Y38D02*
Y49D01*
G01Y46D02*
X541Y47D01*
X540Y49D01*
X538Y49D01*
X537Y49D01*
X536Y47D01*
X535Y46D01*
Y38D01*
G01X527Y40D02*
X526Y39D01*
X525Y38D01*
X524D01*
X522Y39D01*
X521Y41D01*
X521Y42D01*
X522Y43D01*
X526Y45D01*
X527Y46D01*
X526Y48D01*
X525Y49D01*
X524Y49D01*
X523Y49D01*
X522Y48D01*
G01X510Y38D02*
X511Y38D01*
X512Y39D01*
X513Y41D01*
X513Y43D01*
X513Y46D01*
X512Y47D01*
X511Y49D01*
X510Y49D01*
X508Y49D01*
X507Y47D01*
X506Y46D01*
X506Y43D01*
X506Y41D01*
X507Y39D01*
X508Y38D01*
X510Y38D01*
G01X498D02*
Y49D01*
G01Y47D02*
X497Y48D01*
X496Y49D01*
X495Y49D01*
X494Y49D01*
X492Y48D01*
G01X470Y49D02*
X466Y38D01*
X463Y49D01*
G01X456Y51D02*
X454Y53D01*
X453Y54D01*
X451Y54D01*
X449Y54D01*
X448Y52D01*
X448Y51D01*
X448Y49D01*
X449Y48D01*
X453Y45D01*
X454Y43D01*
X456Y41D01*
X456Y38D01*
X448D01*
G01X437Y38D02*
X438Y38D01*
X437Y39D01*
X437Y38D01*
G01X423Y54D02*
X424Y54D01*
X426Y52D01*
X426Y51D01*
X427Y49D01*
X427Y46D01*
X427Y44D01*
X426Y42D01*
X426Y40D01*
X424Y39D01*
X423Y38D01*
X421Y39D01*
X420Y40D01*
X419Y42D01*
X419Y44D01*
X418Y46D01*
X419Y49D01*
X419Y51D01*
X420Y52D01*
X421Y54D01*
X423Y54D01*
M02*
