G04 ================== begin FILE IDENTIFICATION RECORD ==================*
G04 Layout Name:  P:/MEA5/PIFE/CARTE_ELEC/allegro/SMART_SENSOR_PROJECT_v2.0.brd*
G04 Film Name:    TOP*
G04 File Format:  Gerber RS274X*
G04 File Origin:  Cadence Allegro 17.2-S014*
G04 Origin Date:  Fri Dec 21 16:34:23 2018*
G04 *
G04 Layer:  ETCH/TOP*
G04 Layer:  PIN/TOP*
G04 Layer:  VIA CLASS/TOP*
G04 *
G04 Offset:    (0.00 0.00)*
G04 Mirror:    No*
G04 Mode:      Positive*
G04 Rotation:  0*
G04 FullContactRelief:  No*
G04 UndefLineWidth:     0.20*
G04 ================== end FILE IDENTIFICATION RECORD ====================*
%FSLAX51Y51*MOMM*%
%IR0*IPPOS*OFA0.00000B0.00000*MIA0B0*SFA1.00000B1.00000*%
%ADD11C,1.800098*%
%ADD12C,1.999996*%
%ADD13C,2.999994*%
%ADD14C,3.50012*%
%ADD10C,3.450082*%
%LPD*%
G75*
G54D10*
X38Y38D03*
Y1181D03*
X724Y38D03*
Y1181D03*
G54D11*
X51Y686D03*
Y1041D03*
X127Y178D03*
Y229D03*
X76Y686D03*
Y1041D03*
X178Y102D03*
Y51D03*
X203Y203D03*
Y305D03*
X279Y51D03*
X254Y165D03*
Y190D03*
X305Y356D03*
Y381D03*
Y406D03*
Y432D03*
Y457D03*
Y483D03*
Y508D03*
Y533D03*
Y559D03*
Y584D03*
Y610D03*
Y635D03*
Y660D03*
Y686D03*
Y711D03*
Y737D03*
Y762D03*
Y787D03*
Y813D03*
Y838D03*
Y864D03*
Y889D03*
Y914D03*
Y940D03*
X356Y51D03*
Y178D03*
Y229D03*
X432Y203D03*
Y305D03*
X457Y381D03*
Y356D03*
Y457D03*
Y432D03*
Y406D03*
Y533D03*
Y508D03*
Y483D03*
Y635D03*
Y610D03*
Y584D03*
Y559D03*
Y711D03*
Y686D03*
Y660D03*
Y787D03*
Y762D03*
Y737D03*
Y889D03*
Y864D03*
Y838D03*
Y813D03*
Y940D03*
Y914D03*
X559Y76D03*
Y127D03*
X483Y165D03*
Y190D03*
X508Y1143D03*
Y1168D03*
X686Y406D03*
X711D03*
X686Y762D03*
X711D03*
G54D12*
X127Y279D03*
X102D03*
X127Y356D03*
X102Y533D03*
Y508D03*
Y483D03*
X127Y533D03*
Y508D03*
Y483D03*
X102Y610D03*
Y584D03*
Y559D03*
X127Y610D03*
Y584D03*
Y559D03*
Y660D03*
X102D03*
X76D03*
X102Y889D03*
Y864D03*
Y838D03*
X127Y889D03*
Y864D03*
Y838D03*
X102Y965D03*
Y940D03*
Y914D03*
X127Y965D03*
Y940D03*
Y914D03*
Y1016D03*
X102D03*
X76D03*
X152Y279D03*
X203Y356D03*
X178D03*
X229D03*
X305Y1118D03*
Y1092D03*
X381Y305D03*
X356D03*
X330D03*
X381Y1118D03*
X356D03*
X330D03*
X381Y1092D03*
X356D03*
X330D03*
X432Y1118D03*
X406D03*
X432Y1092D03*
X406D03*
X533Y305D03*
X508D03*
X483D03*
X533Y381D03*
Y406D03*
Y432D03*
X559Y1041D03*
X533D03*
X508D03*
X483Y1092D03*
Y1118D03*
Y1143D03*
X635Y432D03*
Y483D03*
Y508D03*
Y533D03*
Y559D03*
Y584D03*
Y610D03*
Y787D03*
Y838D03*
Y864D03*
Y889D03*
Y914D03*
Y940D03*
Y965D03*
X610Y1041D03*
X584D03*
X660Y432D03*
X686D03*
X660Y483D03*
Y508D03*
Y533D03*
Y559D03*
Y584D03*
Y610D03*
Y787D03*
X686D03*
X660Y838D03*
Y864D03*
Y889D03*
Y914D03*
Y940D03*
Y965D03*
G54D13*
X279Y102D03*
X483D03*
G54D14*
X610Y330D03*
X711D03*
X660D03*
M02*
